# xmcd CD database file
#
# Track frame offsets:
#	150
#	20370
#	37898
#	57427
#	79237
#	98004
#	116738
#	136024
#	155969
#	176689
#	195259
#	211749
#
# Disc length: 3063 seconds
#
# Revision: 0
# Processed by: cddbd v1.4PL0 Copyright (c) Steve Scherf et al.
# Submitted via: CDex 1.50Beta7
#
DISCID=970bf50c
DTITLE=Various Artist - Merengue En La Decima Avenida N.Y.
DYEAR=2000
DGENRE=Merengue
TTITLE0=Los Sabrosos Del Merengue - El Velon
TTITLE1=Rubby Perez - Enamorao
TTITLE2=Cana Brava - El Amor Nacio Asi
TTITLE3=La Banda Gorda - Aqui, Pero Alla
TTITLE4=K-Libre - Dime Que Me Quieres
TTITLE5=Grupo Mania - Loco De Amor
TTITLE6=Karis - Mujer Malvada
TTITLE7=Wao - Que Te Va´ Sin Mi
TTITLE8=La Linea - Esperanza
TTITLE9=M. Manuel Y Los Sabrosos Del Merengue - Y Quien Puede Ser
TTITLE10=Nelson De La Olla Y La Banda Chula - Esto Es Pa´ Goza
TTITLE11=Dionis Y La Banda Flakka - Te Olvidaste De Mi
EXTD=YEAR: 2000
EXTT0=
EXTT1=
EXTT2=
EXTT3=
EXTT4=
EXTT5=
EXTT6=
EXTT7=
EXTT8=
EXTT9=
EXTT10=
EXTT11=
PLAYORDER=
